<svg id="Layer_1" data-name="Layer 1" xmlns="http://www.w3.org/2000/svg" viewBox="0 0 700 600"><title>Corporate Illustrations Pack - Scene 6</title><path d="M215.64,525.48l-4.62,19h57.9s-1-13.85-9.29-15.92-26.84,0-26.84,0Z" fill="#2f4559"/><path d="M148,528.57l-4.52,15.92h32.39s6.71-14.37-8.77-19S148,528.57,148,528.57Z" fill="#2f4559"/><path d="M239,318.51,254,432.4l-7,97.33H210.6l-7-156.51-22.8,156.51h-42s21.05-167.22,33.27-200.13S239,318.51,239,318.51Z" fill="#17212b"/><rect x="282.72" y="167.35" width="170.57" height="170.57" fill="#f5f5f5"/><polygon points="454.39 338.99 281.62 338.99 281.62 167.35 283.82 167.35 283.82 336.79 452.19 336.79 452.19 167.35 454.39 167.35 454.39 338.99" fill="#d1d1d1"/><rect x="277.29" y="164.35" width="181.55" height="6" fill="#e3e3e3"/><path d="M183.78,336.91l-4.92,22.73L174,382.4c-3.11,15.19-6.3,30.37-8.83,45.65l-.88,5.74-.73,5.75q-.69,5.79-1.57,11.55-1.76,11.51-3.81,23t-4.29,22.86q-2.25,11.41-4.64,22.8l4.12-22.89q2.06-11.46,4-22.92c1.31-7.64,2.57-15.29,3.69-22.95.57-3.84,1.08-7.67,1.52-11.52l.74-5.78.91-5.75c2.62-15.31,5.76-30.5,9.09-45.65S180.15,352,183.78,336.91Z" fill="#636363"/><path d="M412.09,254.82s0,13.88,1.54,21.88,8.52,10.68,14.46,10L434,286a19.56,19.56,0,0,1-1.29,13.45l18.84-2.35a65.51,65.51,0,0,1-5.16-14.19c-1.55-7.23-12-26.53-12-26.53l-18-5.22h-4.38Z" fill="#ffbc9d"/><path d="M423.18,269.6s-15.87-12.77-11.81-26.32,25.36-5.42,25.36-5.42-2.32-9.29,8.9-11.61,18.2,16.65,5.42,18.19c0,0,8.69,10.07,6.86,22.07s-7.24,20.9-13.44,20.13-10-2.81-17-11.23c0,0,3.48,3.61,5.29-4.39s-7.23-7.48-7.48-4.64a9.88,9.88,0,0,0,.77,4.9Z" fill="#17212b"/><polygon points="482.58 368.57 514.57 544.27 509.41 544.27 462.17 380.12 458.84 368.57 482.58 368.57" fill="#17212b"/><polygon points="133.68 368.57 101.16 545.61 106.32 545.61 157.42 368.57 133.68 368.57" fill="#17212b"/><rect x="124.54" y="354.93" width="371.61" height="18.29" fill="#2f4559"/><path d="M425.12,368.57s-6.58,12.91-30.58,19.1c-12.57,3.24-29.56,9.45-42.89,14.64A27.24,27.24,0,0,0,334.78,433l18.34,92.49h21.8L377.76,426l49.68-.31s33.75-14.27,32.36-57.11Z" fill="#9C27B0"/><path d="M467.7,368.57s-6.58,12.91-30.58,19.1c-12.57,3.24-29.55,9.45-42.89,14.64A27.24,27.24,0,0,0,377.36,433l18.34,92.49h21.8L420.34,426l49.68-.31s33.75-14.27,32.36-57.11Z" fill="#9C27B0"/><rect x="311.85" y="300.94" width="74.99" height="45" fill="#f2f3f4"/><path d="M385.34,302.44v42h-72v-42h72m3-3h-78v48h78v-48Z" fill="#17212b"/><rect x="311.85" y="348.94" width="89.31" height="4.49" fill="#f2f3f4"/><path d="M399.66,350.44v1.49H313.35v-1.49h86.31m3-3H310.35v7.49h92.31v-7.49Z" fill="#17212b"/><path d="M337.49,320.86c-2.06-1.89-4.15-1.78-7.59-1.42s-10.06-1.22-11.58-3.7-5.92-10.65-.13-11c0,0,5.76,2.71,10.26,2.88a22.42,22.42,0,0,1,7.08,1.24,39,39,0,0,1-3.83-4.54c-1.72-2.44-.26-6.51,1.89-4.18s7,6.13,8.66,8.37a49.75,49.75,0,0,1,3.26,5.16Z" fill="#ffbc9d"/><path d="M458.17,295.54l-37.05,3.9s-6.26.36-23.78,12.36c-8.48,5.81-14.41,9.62-18.27,12a10,10,0,0,1-11.21-.44l-20.55-15.06-13.55,14.25,27.55,28.93a10,10,0,0,0,11.5,2.18l41.86-19.42,10.45,34.32H481.5s-29.92,38.07-5.53,31.49,9.79-73.55,9.79-73.55l-11.48-19.74S464.76,294,458.17,295.54Z" fill="#17212b"/><path d="M493.63,322.56h55L508.76,420a19.93,19.93,0,0,1-18.44,12.39H411.37l19.94-8.34S441,426,453.38,394.64s28.12-68.91,28.12-68.91Z" fill="#2f4559"/><path d="M370.79,525.48l4.13,19.12H323.06s-5.43-19.12,18.06-19.12Z" fill="#17212b"/><path d="M414.41,525.48l4.13,19.12H366.68s-5.43-19.12,18.05-19.12Z" fill="#17212b"/><path d="M350.41,432.39h0a11,11,0,0,1,11-11h59.71c.61,0,14.81-.31,22.89-17.49s23.07-52.07,30.73-70a18.57,18.57,0,0,1,17.09-11.29h0c-.25.58-26.64,62.17-37.86,86s-32,23.81-32.91,23.8Z" fill="#2f4559"/><rect x="360.09" y="428.48" width="8.52" height="116.13" fill="#2f4559"/><rect x="423.18" y="427.48" width="8.52" height="117.13" fill="#2f4559"/><rect x="481.5" y="427.48" width="8.52" height="117.13" fill="#2f4559"/><path d="M359.17,525.48l-3.6-23.35-3.5-23.37-3.42-23.37-1.71-11.69-.85-5.84c-.29-1.95-.57-3.9-.76-5.87a45.5,45.5,0,0,1-.29-6,17.85,17.85,0,0,1,1.07-5.94,11.57,11.57,0,0,1,3.67-4.84,19.92,19.92,0,0,1,5.29-2.85c3.74-1.43,7.67-2.06,11.48-3s7.67-1.78,11.48-2.75a462.53,462.53,0,0,0,45.15-13.79,428.72,428.72,0,0,1-45,14.39q-5.71,1.5-11.47,2.85a86.77,86.77,0,0,0-11.34,3.05,19.58,19.58,0,0,0-5.05,2.75,10.68,10.68,0,0,0-3.36,4.48,16.42,16.42,0,0,0-1,5.63,45.55,45.55,0,0,0,.3,5.83c2.09,15.58,4.4,31.18,6.55,46.78l3.21,23.4Z" fill="#636363"/><path d="M491.83,322.56q-10,23.91-20.32,47.7-5.14,11.89-10.44,23.74c-1.77,3.94-3.54,7.88-5.36,11.81a61.79,61.79,0,0,1-6.36,11.35,38.4,38.4,0,0,1-21.16,14.59,30.72,30.72,0,0,1-6.48,1c-2.19,0-4.33,0-6.49,0l-13,0-25.92-.13-25.92-.23,25.92-.22,25.93-.14,13,0c2.15,0,4.34,0,6.46,0a30,30,0,0,0,6.3-1,38,38,0,0,0,20.68-14.3,60.49,60.49,0,0,0,6.3-11.19c1.83-3.92,3.61-7.85,5.39-11.79L470.91,370Z" fill="#17212b"/><rect x="349" y="54.4" width="2" height="59.98" fill="#e3e3e3"/><path d="M350,146.72a11.3,11.3,0,1,1,11.3-11.3A11.31,11.31,0,0,1,350,146.72Zm0-20.6a9.3,9.3,0,1,0,9.3,9.3A9.31,9.31,0,0,0,350,126.12Z" fill="#e3e3e3"/><path d="M383.34,246.71c-4.06,0-5.5-7.18-6.9-14.11-.33-1.66-.64-3.23-1-4.53-.69-2.78-1.61-5.69-3.17-6.19-1.19-.39-3.05.45-5.51,2.51-3.79,3.16-6.78,3-8.62,2.4-3.64-1.28-6.32-5.68-7.74-12.71-.63-3.12-1-6.35-1.29-9.2-.53-4.88-1-9.48-2.72-10.66a2.06,2.06,0,0,0-1.81-.19c-2,.49-3.32,5.82-4.6,11-2.11,8.49-4.5,18.11-11.75,18.86-7,.72-9.3-3.11-11.37-6.49-1.53-2.52-2.86-4.69-5.93-5.13a4,4,0,0,0-3.1.87c-4.42,3.44-5.7,14.69-5.71,14.81l-2.19-.24c.05-.5,1.39-12.3,6.55-16.31a6.16,6.16,0,0,1,4.76-1.31c4.1.59,5.91,3.55,7.5,6.16,2,3.23,3.68,6,9.27,5.45s7.9-9.42,9.84-17.2c1.63-6.57,2.92-11.76,6.2-12.58a4.25,4.25,0,0,1,3.6.52c2.51,1.75,3,6.38,3.65,12.24.3,2.8.65,6,1.26,9,1.24,6.14,3.48,10.07,6.31,11.06,1.89.67,4.07,0,6.48-2,3.17-2.64,5.59-3.56,7.6-2.91,2.7.88,3.8,4.46,4.63,7.75.33,1.36.65,2.95,1,4.63.93,4.62,2.48,12.34,4.74,12.34,3.32,0,3.32-15.7,3.32-28.31,0-8.11.67-27.54,6.85-32.75a5.16,5.16,0,0,1,4.34-1.24c4.52.77,5.1,5.49,5.71,10.48.48,3.85,1,8.23,3.31,11.67,1.43,2.14,2.35,2.6,2.87,2.61h0c1,0,2.21-1.67,3.39-3.29A17.28,17.28,0,0,1,417.5,199c1.11-.71,2.78-1.57,4.42-.95,2.52.95,3.66,4.79,5.72,11.76l.53,1.8c2.92,9.81,9.34,9.68,9.61,9.67l.1,2.2c-.34,0-8.38.3-11.82-11.24l-.53-1.81c-1.68-5.66-2.89-9.75-4.38-10.32-.55-.2-1.36,0-2.48.75a15.69,15.69,0,0,0-3.74,4.1c-1.58,2.18-3.09,4.25-5.23,4.2-1.57,0-3.05-1.17-4.66-3.59-2.58-3.87-3.16-8.52-3.66-12.62-.64-5.16-1.13-8.11-3.9-8.58a3,3,0,0,0-2.55.76c-3.8,3.2-6.07,14.81-6.07,31.06C388.86,237.41,388.34,246.71,383.34,246.71Z" fill="#d1d1d1"/><path d="M308.25,258.9s7.9-8,11.69-10.33,13.34-7.48,13.34-7.48.77,1.81-1.55,4.51a21.61,21.61,0,0,1-5.44,4.39s3.89-1.16,4.15,1.16a11.87,11.87,0,0,0,1.29,4.13,17.72,17.72,0,0,1,4.65-.26c2.06.26-1.81,2.58-7.75,7.75s-10.58,7.22-13.16,7.74S308.25,258.9,308.25,258.9Z" fill="#ffbc9d"/><path d="M307.21,256.37l10.07,17-42.38,27.3A14.08,14.08,0,0,1,255.81,297l-14.14-19.9s-1.55,9.44,0,26.47-.69,22.19-.69,22.19H172.25s-2.58-2.32,0-21.67a34.61,34.61,0,0,1-18.07,8c-11.35,1.54-16-2.58-13.68-14.2s26.33-53.67,26.33-53.67,3.35-7,9.55-8.78,12.12-1.34,15.22-4.15,3.36-5.21,3.36-5.21l23,1.1,5.17,6.45s2.83,0,10.06,1.81,9.29,5.78,19.1,17.21c5.79,6.75,11.13,12.67,14.53,16.38a7.66,7.66,0,0,0,8.83,1.79Z" fill="#d1d1d1"/><polygon points="183.15 254.7 225.15 254.7 223.21 299.44 187.79 299.44 183.15 254.7" fill="#17212b"/><path d="M187.73,266.77l2.58-5.68c2.52-6.07,4.13-10.78,5.29-9.74s1,5.35-.39,9.35-1.93,6.07-.58,4.9,5.23-9.67,7.31-13.16,3.53,2.13,2,6.39-6.58,9.87-4.45,9.1,9.29-4.26,13-4.65.19,4.26-4.45,6.39-6.39,3.1-8.09,4.45.54,1.16,6.93,1,3.67,2.32-1.16,3.68-7.94,1.93-7.94,1.93-2.42,4.16-3.87,5.42c-3,2.6-8.9,4.07-8.9,4.07l-5.6-10.07a48,48,0,0,0,3.08-6,61.56,61.56,0,0,1-1.64-6.52c-.62-3.29.16-5.87-2-8.7a3.81,3.81,0,0,1,4.78,3c1,4,4,4.65,4,4.65Z" fill="#ffbc9d"/><path d="M217.92,227.15l5.17,6.45s-1.3,4.93-11.36,7.49l-5.4-9.83A25.38,25.38,0,0,0,217.92,227.15Z" fill="#f5f5f5"/><path d="M195,226.05s.8,4.15,11.37,5.21l-5.69,9.83A13.42,13.42,0,0,1,189,232.76S193.41,228.57,195,226.05Z" fill="#f5f5f5"/><path d="M200.64,241.09l2.53,3.22a3.92,3.92,0,0,0,6.21-.08l2.35-3.14-5.4-9.83Z" fill="#17212b"/><path d="M142.7,299.44a22.92,22.92,0,0,1,7-7.76,39.4,39.4,0,0,1,9.3-5c3.29-1.23,6.55-2.34,9.69-3.82a38.45,38.45,0,0,0,4.57-2.44,13.18,13.18,0,0,0,3.89-3.39,7.34,7.34,0,0,1-1.59,2.09,19.4,19.4,0,0,1-2,1.72,37.58,37.58,0,0,1-4.5,2.75q-1.17.62-2.37,1.14c-.8.37-1.61.72-2.42,1-1.62.66-3.31,1.23-4.91,1.83a43.62,43.62,0,0,0-9.23,4.64,31.27,31.27,0,0,0-4.05,3.22A19.85,19.85,0,0,0,142.7,299.44Z" fill="#636363"/><path d="M270.65,271.27a6.48,6.48,0,0,1,1.09,2.22,8.92,8.92,0,0,1,.35,2.46,7.89,7.89,0,0,1-.34,2.47,6.5,6.5,0,0,1-1.1,2.22c.13-.82.31-1.58.37-2.36a19.91,19.91,0,0,0,.09-2.31A43.41,43.41,0,0,0,270.65,271.27Z" fill="#636363"/><path d="M195,226.05s1.54-7.93-2.07-15.15-13.16-17.81-6.19-25.81,12.64-16.26,25.55-13.68,12.9,5.42,12.9,5.42,1.55,11.32,2.84,21.66S228.5,221,215.86,221l2.06,6.19S205.28,237.08,195,226.05Z" fill="#ffbc9d"/><path d="M196,211.68v-7.49a11.06,11.06,0,0,1-3.36,0c-2.32-.26-7.48-10.07-2.84-12.13s6.2,7.48,6.2,7.48h3.61s-5.16-9.16-1-16.32,7.48-7.42,11.1-4.32,7.48,6.32,12.64,4.32,9.29-8.2,4.9-13.1-8.25-2.77-8.25-2.77-4.39-5.49-14.2-5.75-13.42,8.52-13.42,8.52-5.16-2.06-9.29,4.39-2.58,14.45,0,18.06-.26.52,2.58,7.49A84.34,84.34,0,0,0,192,212.9,2.18,2.18,0,0,0,196,211.68Z" fill="#17212b"/><path d="M172.25,304.06a72.47,72.47,0,0,1,5.8-4.89c2-1.53,4-3,6.17-4.4a37.39,37.39,0,0,1-5.56,5.19A38.33,38.33,0,0,1,172.25,304.06Z" fill="#636363"/><path d="M185.54,330a18.38,18.38,0,0,1-1,6,16.2,16.2,0,0,1-3,5.38,14.42,14.42,0,0,1-1.07,1.14l-1.21,1c-.42.31-.89.54-1.33.82a6.67,6.67,0,0,1-1.41.65,13.4,13.4,0,0,1-1.47.5l-1.52.28a7,7,0,0,1-1.52.11H170.5a20,20,0,0,0,5.7-1.63,13.41,13.41,0,0,0,4.6-3.5,19,19,0,0,0,3-5A27.93,27.93,0,0,0,185.54,330Z" fill="#636363"/><path d="M418.76,384c.84,1.62,1.77,3.18,2.74,4.7a45.27,45.27,0,0,0,3.18,4.35,33.08,33.08,0,0,0,3.77,3.81,27.23,27.23,0,0,0,4.49,3,16.29,16.29,0,0,1-5-2.39,22.38,22.38,0,0,1-4.06-3.78A26.77,26.77,0,0,1,418.76,384Z" fill="#636363"/><polygon points="560.03 544.37 524.16 544.37 510.43 485.1 573.77 485.1 560.03 544.37" fill="#2f4559"/><rect x="505.73" y="478.31" width="72.73" height="17.82" fill="#2f4559"/><path d="M513,496.13c2.43-.16,4.85-.23,7.28-.35l7.28-.2c4.85-.12,9.71-.14,14.56-.16s9.7,0,14.56.16l7.28.2c2.42.12,4.85.19,7.27.35-2.42.16-4.85.23-7.27.35l-7.28.2c-4.86.12-9.71.14-14.56.16s-9.71,0-14.56-.17l-7.28-.19C517.83,496.36,515.41,496.29,513,496.13Z" fill="#636363"/><path d="M548.39,288.16s.51,4.91-3.87,18.58,3.35,39.56,16,44.55,22.71-9.71,19.87-24.42-12.39-23-19.61-29.16A132.34,132.34,0,0,0,548.39,288.16Z" fill="#9C27B0"/><path d="M555.61,299.52a100.87,100.87,0,0,1,7.47,21.39,102.77,102.77,0,0,1,2.76,22.51c0,1.9,0,3.8-.11,5.69s-.25,3.78-.45,5.67l-.8,5.63L563.43,366c-1.43,7.44-3.14,14.81-4.84,22.18a199,199,0,0,0-4.15,22.26,131,131,0,0,0-.62,22.58l.74,11.32c.21,3.78.41,7.57.48,11.36s.11,7.59,0,11.39c-.08,1.9-.18,3.8-.36,5.7a38.37,38.37,0,0,1-.88,5.75l-1.35-.43a38.68,38.68,0,0,0,.86-5.46c.19-1.86.31-3.74.4-5.62.17-3.76.18-7.53.12-11.31s-.21-7.54-.39-11.31l-.65-11.34a131.93,131.93,0,0,1,.8-22.74A198.37,198.37,0,0,1,557.9,388c1.75-7.36,3.52-14.71,5-22.12l1.09-5.57.84-5.6c.21-1.87.32-3.76.49-5.64s.1-3.77.15-5.65A102.46,102.46,0,0,0,562.9,321,100.15,100.15,0,0,0,555.61,299.52Z" fill="#636363"/><path d="M534.67,398.23c3.48,5.87,9.45,4.26,18.42,5.42s11.69,2.71,17.49,8.9,24,5.42,28.26,3.48c0,0-9.68-7-15.1-17.8s-12.82-21.55-23.06-20.65S526.62,384.68,534.67,398.23Z" fill="#9C27B0"/><path d="M582.46,407.52a31.42,31.42,0,0,1-7.26-4.58c-2.23-1.8-4.35-3.74-6.48-5.67s-4.13-4-6.68-5.32a21.89,21.89,0,0,0-8.12-2.47,20.32,20.32,0,0,0-8.42.83,16.12,16.12,0,0,0-7,4.58,13.12,13.12,0,0,0-3.42,7.53,22.75,22.75,0,0,0,1.14,8.35c1.61,5.48,3.63,10.87,5.19,16.41A167.13,167.13,0,0,1,545.26,444q1.54,8.49,2.44,17.07c.6,5.73,1,11.46,1.14,17.24h-1.42c0-5.69-.42-11.42-1-17.11s-1.29-11.38-2.25-17a167.91,167.91,0,0,0-3.66-16.76c-1.5-5.52-3.45-10.91-5-16.46a23.56,23.56,0,0,1-1.07-8.6,13.68,13.68,0,0,1,3.64-7.82,16.56,16.56,0,0,1,7.28-4.65,20.82,20.82,0,0,1,8.59-.77,22.12,22.12,0,0,1,8.2,2.6,19,19,0,0,1,3.53,2.5l3.15,2.92c2.11,1.95,4.2,3.91,6.42,5.73A31.45,31.45,0,0,0,582.46,407.52Z" fill="#636363"/><path d="M539.23,328.94s-8.13,8.76-17,19.28-22.06,39.94,0,44.2S553.94,359.52,539.23,328.94Z" fill="#9C27B0"/><path d="M539.29,478.25a47.05,47.05,0,0,0-.58-9,85.34,85.34,0,0,0-1.88-8.9,110.31,110.31,0,0,0-6.28-17.11c-2.53-5.55-5.43-10.94-7.93-16.56a41,41,0,0,1-4-17.91,76.37,76.37,0,0,1,2.82-18.16c1.54-5.93,3.39-11.77,5.17-17.62,3.6-11.69,7.21-23.38,11.09-35-3.77,11.64-7.27,23.36-10.75,35.09-1.73,5.86-3.52,11.72-5,17.64a75.73,75.73,0,0,0-2.62,18,40.13,40.13,0,0,0,4.12,17.55c2.53,5.54,5.48,10.91,8.08,16.47A111.16,111.16,0,0,1,538,460a84.55,84.55,0,0,1,2,9,47.85,47.85,0,0,1,.69,9.3Z" fill="#636363"/><path d="M475.46,428.58c7.64,6.42,5.18,16.1,20.15,21.91s25.64-3.88,22.44-13.94-13.66-11.61-27.6-11.61S475.46,428.58,475.46,428.58Z" fill="#9C27B0"/><path d="M486.19,430.74a37.83,37.83,0,0,1,8.09,3.41c2.59,1.38,5,3.15,7.48,4.61a58.7,58.7,0,0,0,7.85,3.83l4.09,1.61,2,.81a14.77,14.77,0,0,1,2,.94l.51.28c.16.11.3.24.45.35s.6.47.87.73a18.23,18.23,0,0,1,1.52,1.65,17.67,17.67,0,0,1,1.32,1.8l.62.93.55,1A44.91,44.91,0,0,1,529,469.49a37.58,37.58,0,0,1-.08,8.93l-1.41-.22a39.64,39.64,0,0,0-1.37-17.09,42,42,0,0,0-3.26-8l-.52-.95-.58-.92a16.51,16.51,0,0,0-1.25-1.76,17.85,17.85,0,0,0-1.41-1.61c-.25-.24-.54-.46-.8-.69s-.27-.23-.41-.33l-.45-.26a12.79,12.79,0,0,0-1.93-.94l-2-.86-4.06-1.69a59.12,59.12,0,0,1-7.84-4c-2.51-1.52-4.82-3.33-7.38-4.75A37.24,37.24,0,0,0,486.19,430.74Z" fill="#636363"/><path d="M413.86,135H286.14l6.61-6.66C319.32,101.55,337.69,93.1,350,93.1h0c12.31,0,30.68,8.45,57.25,35.24Z" fill="#f5f5f5"/></svg>